HIERARCHY
ROOT SimulationBone
{
	OFFSET 0.000000 0.000000 0.000000
	CHANNELS 6 Xposition Yposition Zposition Zrotation Yrotation Xrotation 
	JOINT Hips
	{
		OFFSET 0.000000 0.000000 0.000000
		CHANNELS 6 Xposition Yposition Zposition Zrotation Yrotation Xrotation 
		JOINT RightUpLeg
		{
			OFFSET 0.103459 1.857827 10.548504
			CHANNELS 3 Zrotation Yrotation Xrotation
			JOINT RightLeg
			{
				OFFSET 43.500008 0.000000 0.000004
				CHANNELS 3 Zrotation Yrotation Xrotation
				JOINT RightFoot
				{
					OFFSET 42.372192 0.000011 0.000000
					CHANNELS 3 Zrotation Yrotation Xrotation
					JOINT RightToe
					{
						OFFSET 17.299973 -0.000013 -0.000010
						CHANNELS 3 Zrotation Yrotation Xrotation
						End Site
						{
							OFFSET 0.000000 0.000000 0.000000
						}
					}
				}
			}
		}
		JOINT LeftUpLeg
		{
			OFFSET 0.103454 1.857830 -10.548500
			CHANNELS 3 Zrotation Yrotation Xrotation
			JOINT LeftLeg
			{
				OFFSET 43.500038 -0.000038 0.000004
				CHANNELS 3 Zrotation Yrotation Xrotation
				JOINT LeftFoot
				{
					OFFSET 42.372253 0.000019 0.000024
					CHANNELS 3 Zrotation Yrotation Xrotation
					JOINT LeftToe
					{
						OFFSET 17.299988 -0.000007 0.000004
						CHANNELS 3 Zrotation Yrotation Xrotation
						End Site
						{
							OFFSET 0.000000 0.000000 0.000000
						}
					}
				}
			}
		}
		JOINT Spine
		{
			OFFSET 6.901963 -2.603744 0.000004
			CHANNELS 3 Zrotation Yrotation Xrotation
			JOINT Spine1
			{
				OFFSET 12.588104 0.000008 -0.000010
				CHANNELS 3 Zrotation Yrotation Xrotation
				JOINT Spine2
				{
					OFFSET 12.343202 -0.000005 0.000010
					CHANNELS 3 Zrotation Yrotation Xrotation
					JOINT Neck
					{
						OFFSET 25.832897 0.000000 0.000001
						CHANNELS 3 Zrotation Yrotation Xrotation
						JOINT Head
						{
							OFFSET 11.766611 -0.000006 -0.000000
							CHANNELS 3 Zrotation Yrotation Xrotation
							End Site
							{
								OFFSET 0.000000 0.000000 0.000000
							}
						}
					}
					JOINT RightShoulder
					{
						OFFSET 19.745899 -1.480366 6.000108
						CHANNELS 3 Zrotation Yrotation Xrotation
						JOINT RightArm
						{
							OFFSET 11.284111 -0.000018 -0.000015
							CHANNELS 3 Zrotation Yrotation Xrotation
							JOINT RightForeArm
							{
								OFFSET 33.000050 -0.000005 0.000028
								CHANNELS 3 Zrotation Yrotation Xrotation
								JOINT RightHand
								{
									OFFSET 25.200012 0.000000 0.000002
									CHANNELS 3 Zrotation Yrotation Xrotation
									End Site
									{
										OFFSET 0.000000 0.000000 0.000000
									}
								}
							}
						}
					}
					JOINT LeftShoulder
					{
						OFFSET 19.746111 -1.480335 -6.000074
						CHANNELS 3 Zrotation Yrotation Xrotation
						JOINT LeftArm
						{
							OFFSET 11.284151 0.000036 0.000001
							CHANNELS 3 Zrotation Yrotation Xrotation
							JOINT LeftForeArm
							{
								OFFSET 33.000092 -0.000035 0.000022
								CHANNELS 3 Zrotation Yrotation Xrotation
								JOINT LeftHand
								{
									OFFSET 25.199768 0.000178 0.000417
									CHANNELS 3 Zrotation Yrotation Xrotation
									End Site
									{
										OFFSET 0.000000 0.000000 0.000000
									}
								}
							}
						}
					}
				}
			}
		}
	}
}
MOTION
Frames: 10
Frame Time: 0.033333
174.391335 0.000000 517.814295 180.000000 88.608155 180.000000 0.157948 91.906113 -0.808239 89.747426 -1.088807 -179.728970 176.503235 -1.785702 178.374843 -15.029744 -4.319357 -4.887953 77.742087 2.952904 -2.401709 21.454558 0.003109 0.000016 175.280454 4.554602 -170.795328 -16.964143 -1.092249 -1.365215 77.459884 1.767218 2.950840 21.454553 -0.003100 0.000000 5.562769 0.206571 -0.220923 1.111907 0.415190 -0.439981 0.793804 0.412382 -0.442486 5.549823 0.176565 17.459669 15.481180 -8.577210 17.931075 -143.667292 -72.627280 -38.697933 -8.440481 63.497543 34.694820 -33.174560 -14.128913 1.265139 2.069138 -10.871171 10.255120 -163.216700 77.296199 18.632351 5.095512 -63.533170 -32.187533 -37.144447 14.420445 -1.348051 -4.576025 13.987441 -17.465386 
174.484702 0.000000 517.505618 180.000000 88.652039 180.000000 0.001826 91.897400 -0.778073 89.774430 -1.122462 -179.459758 176.598298 -1.861502 178.262145 -15.048210 -4.308973 -4.680697 77.763118 2.799026 -2.428542 21.454558 0.003111 0.000020 175.425759 4.497292 -170.732080 -17.020724 -1.102064 -1.251272 77.611057 1.676159 2.928519 21.454551 -0.003098 -0.000001 5.495136 0.232790 -0.229504 0.976501 0.467404 -0.457187 0.658414 0.464496 -0.460000 5.237083 -0.415717 17.159882 16.178222 -7.995633 17.454519 -146.380503 -72.882599 -35.907940 -9.734455 63.452287 35.722200 -29.438064 -12.804726 1.104006 3.534206 -7.640082 10.911658 -165.966794 77.208397 15.827915 2.382148 -64.162804 -31.762900 -31.210444 12.979929 -1.123398 -1.729169 10.793292 -14.275207 
174.613926 0.000000 517.258703 180.000000 88.711720 180.000000 -0.093798 91.888710 -0.784629 89.797287 -1.135318 -179.380529 176.709985 -1.943302 178.193953 -15.066499 -4.300944 -4.618868 77.811694 2.731517 -2.523607 21.454560 0.003118 0.000019 175.532733 4.423705 -170.744047 -17.064340 -1.099005 -1.215046 77.729834 1.629208 2.861996 21.454551 -0.003098 0.000001 5.429920 0.257763 -0.194855 0.846132 0.516862 -0.387992 0.528020 0.514374 -0.391114 4.860712 -1.033068 16.731925 16.728004 -7.231995 16.853570 -148.833674 -73.124791 -33.385456 -10.311613 63.462955 36.793249 -26.932150 -11.861122 0.998249 4.721069 -5.581610 11.699546 -169.177625 77.077408 12.552543 -0.124742 -64.317562 -31.712442 -26.070742 11.281348 -0.920612 0.221891 9.577596 -11.783708 
174.776498 0.000000 517.067522 180.000000 88.786350 180.000000 -0.143315 91.878754 -0.816017 89.803437 -1.131688 -179.461317 176.803558 -2.038297 178.218869 -15.108978 -4.316943 -4.710380 77.889647 2.758059 -2.679868 21.454558 0.003106 0.000018 175.574439 4.334395 -170.812991 -17.125723 -1.087865 -1.249120 77.831426 1.620713 2.750975 21.454553 -0.003091 -0.000000 5.372949 0.283544 -0.132848 0.732418 0.567865 -0.264099 0.414316 0.566125 -0.267527 4.386365 -1.587566 16.259926 17.168352 -6.473052 16.225493 -151.316134 -73.332333 -30.834865 -9.908984 63.315054 38.268501 -26.044240 -11.368214 0.951664 5.554524 -4.948117 11.533946 -173.589968 76.933427 8.049522 -1.741463 -64.066143 -32.971973 -22.466540 9.746230 -0.767829 1.477895 10.544960 -10.167157 
174.969909 0.000000 516.926046 180.000000 88.875081 180.000000 -0.159483 91.866440 -0.861802 89.799879 -1.117584 -179.662067 176.876560 -2.157896 178.248171 -15.185344 -4.355901 -4.878398 77.987790 2.831108 -2.867810 21.454558 0.003111 0.000017 175.551844 4.225395 -170.928954 -17.225138 -1.081131 -1.333552 77.928511 1.639193 2.605680 21.454550 -0.003078 0.000000 5.337859 0.312471 -0.060484 0.662562 0.625264 -0.119387 0.344447 0.624417 -0.123173 3.696206 -2.066976 15.851541 17.635099 -5.787641 15.663927 -154.075407 -73.451875 -28.003316 -8.686591 62.856667 40.057738 -26.689132 -11.246529 0.954440 5.831005 -5.618145 10.349348 -179.135686 76.748671 2.387900 -2.236755 -63.518396 -35.537874 -20.864502 8.768337 -0.683700 2.331077 12.519784 -9.386442 
175.191649 0.000000 516.828247 180.000000 88.977071 180.000000 -0.146165 91.853188 -0.915000 89.815432 -1.103088 -179.911033 176.962579 -2.284399 178.170389 -15.278604 -4.361654 -5.020639 78.080940 2.881720 -3.070646 21.454557 0.003118 0.000017 175.520685 4.100993 -171.073918 -17.340455 -1.076753 -1.433410 78.020841 1.663228 2.439120 21.454555 -0.003099 -0.000002 5.331180 0.342511 0.009133 0.649583 0.684997 0.019959 0.331474 0.684981 0.015815 2.858595 -2.460902 15.541132 18.113344 -5.183129 15.207438 -156.766420 -73.480473 -25.243664 -7.481904 62.118180 41.819732 -28.193549 -11.243434 0.980255 5.365587 -7.111207 8.995976 175.702887 76.544161 -2.883377 -2.078744 -62.824797 -38.397449 -21.106949 8.424782 -0.664210 2.676556 14.280881 -9.468213 
175.439210 0.000000 516.768096 180.000000 89.091477 180.000000 -0.105004 91.841393 -0.967593 89.869109 -1.090700 179.875539 177.080809 -2.421997 177.966111 -15.373526 -4.327214 -5.076870 78.149276 2.873298 -3.262715 21.454557 0.003107 0.000017 175.542542 3.961499 -171.233280 -17.425401 -1.060377 -1.508181 78.098835 1.666775 2.261662 21.454551 -0.003084 0.000001 5.342308 0.369605 0.057603 0.672152 0.738959 0.117073 0.354026 0.739514 0.112614 2.165495 -2.718159 15.295235 18.441997 -4.685912 14.855001 -158.717177 -73.496093 -23.242796 -7.087883 61.333781 43.284019 -29.664447 -11.231229 1.006481 4.273968 -8.705768 8.833893 172.491865 76.460129 -6.161774 -2.060083 -62.147871 -40.370516 -22.566663 8.453074 -0.684826 2.354765 15.131526 -10.169457 
175.710083 0.000000 516.739564 180.000000 89.217459 180.000000 -0.040159 91.831680 -1.010424 89.953851 -1.080881 179.742613 177.218902 -2.577904 177.664804 -15.468900 -4.263358 -5.037186 78.180749 2.806028 -3.414732 21.454558 0.003105 0.000017 175.624859 3.799387 -171.398898 -17.469355 -1.037057 -1.538630 78.165436 1.638561 2.081975 21.454550 -0.003088 -0.000000 5.352818 0.389879 0.067098 0.693257 0.779419 0.136282 0.375138 0.780107 0.131561 1.846704 -2.781380 15.061838 18.595181 -4.328404 14.578047 -159.705614 -73.588144 -22.227741 -7.579326 60.736125 44.173361 -30.634129 -11.289270 1.028909 3.123098 -9.481741 10.220497 171.515039 76.558211 -7.155268 -2.638036 -61.580337 -40.985021 -24.616012 8.615046 -0.724462 1.626883 14.819584 -11.047069 
176.001759 0.000000 516.736623 180.000000 89.354174 180.000000 0.037742 91.822998 -1.036999 90.038325 -1.076051 179.679397 177.335917 -2.754498 177.311561 -15.577339 -4.186251 -4.933067 78.178174 2.705171 -3.514852 21.454557 0.003114 0.000018 175.712299 3.612002 -171.590690 -17.509962 -1.011579 -1.519285 78.236593 1.574871 1.900910 21.454555 -0.003099 -0.000002 5.349969 0.403182 0.031538 0.687360 0.806252 0.065194 0.369227 0.806489 0.060324 1.864846 -2.697322 14.824167 18.737922 -4.042792 14.339448 -160.026797 -73.769294 -21.895640 -8.520943 60.430153 44.151692 -31.108124 -11.478341 1.050570 2.517396 -8.991910 12.057656 171.861712 76.730209 -6.796548 -3.708611 -61.110720 -40.480653 -26.907310 8.889110 -0.778554 0.960901 13.585729 -11.863043 
176.311729 0.000000 516.753245 180.000000 89.500781 180.000000 0.119957 91.811287 -1.044823 90.103000 -1.068877 179.630347 177.423548 -2.957506 176.927513 -15.692727 -4.104817 -4.808380 78.185565 2.599157 -3.577728 21.454555 0.003109 0.000019 175.751873 3.390697 -171.811728 -17.590838 -0.995810 -1.477391 78.326731 1.492823 1.710321 21.454553 -0.003090 0.000001 5.336036 0.414452 -0.035726 0.659015 0.829113 -0.069365 0.340879 0.828550 -0.074370 2.012021 -2.569671 14.596189 19.008457 -3.759452 14.117283 -160.176419 -73.980347 -21.739235 -9.521112 60.334100 43.147985 -31.305591 -11.692118 1.068405 2.556704 -7.804395 13.035407 172.450324 76.846390 -6.193009 -4.986345 -60.687344 -39.296107 -29.267975 9.284645 -0.845740 0.536858 12.185502 -12.581899 
